<svg width="1200" height="800" viewBox="0 0 1200 800" fill="none" xmlns="http://www.w3.org/2000/svg">
  <rect width="1200" height="800" rx="20" fill="#0f1724"/>
  <g transform="translate(80,80)">
    <rect x="0" y="0" width="1040" height="640" rx="16" fill="#0b1220" stroke="#17203a" stroke-width="2"/>
    <g transform="translate(40,40)">
      <rect x="0" y="0" width="320" height="200" rx="8" fill="#0ea5e9"/>
      <rect x="0" y="220" width="960" height="28" rx="6" fill="#334155"/>
      <rect x="0" y="260" width="860" height="18" rx="6" fill="#1e293b"/>
      <g transform="translate(720,20)">
        <rect x="0" y="0" width="180" height="120" rx="12" fill="#7c3aed"/>
        <text x="90" y="70" text-anchor="middle" fill="white" font-family="Inter, Arial" font-size="22">MQ</text>
      </g>
      <g transform="translate(360,30)">
        <path d="M0 0 L280 0 L280 120 L0 120 Z" fill="#e6f0ff" stroke="#cbd5e1" stroke-width="2"/>
        <path d="M0 0 L140 70 L280 0" fill="#bfd7ff"/>
        <text x="20" y="90" fill="#0b1220" font-family="Inter, Arial" font-size="20">Newsletter microservices</text>
      </g>
      <g transform="translate(360,170)">
        <rect x="0" y="0" width="120" height="80" rx="8" fill="#06b6d4"/>
        <rect x="140" y="0" width="120" height="80" rx="8" fill="#f97316"/>
        <rect x="280" y="0" width="120" height="80" rx="8" fill="#10b981"/>
        <text x="0" y="120" fill="#94a3b8" font-family="Inter, Arial" font-size="16">Docker</text>
        <text x="140" y="120" fill="#94a3b8" font-family="Inter, Arial" font-size="16">RabbitMQ</text>
        <text x="280" y="120" fill="#94a3b8" font-family="Inter, Arial" font-size="16">Express</text>
      </g>
    </g>
  </g>
</svg>